<svg width="20" height="20" viewBox="0 0 20 20" fill="none" xmlns="http://www.w3.org/2000/svg">
<rect width="20" height="20" fill="#F5F5F5"/>
<g id="Mobile" clip-path="url(#clip0_0_1)">
<rect width="430" height="6158" transform="translate(-20 -2385)" fill="white"/>
<g id="About Us">
<rect id="Rectangle 25" x="-20" y="-666" width="430" height="991" fill="white"/>
<g id="Group 46">
<g id="List items">
<g id="Group 36">
<g id="check-square">
<path id="Vector" d="M7.5 9.16665L10 11.6666L18.3333 3.33331" stroke="#6C6C6C" stroke-linecap="round" stroke-linejoin="round"/>
<path id="Vector_2" d="M17.5 10V15.8333C17.5 16.2754 17.3244 16.6993 17.0118 17.0118C16.6993 17.3244 16.2754 17.5 15.8333 17.5H4.16667C3.72464 17.5 3.30072 17.3244 2.98816 17.0118C2.67559 16.6993 2.5 16.2754 2.5 15.8333V4.16667C2.5 3.72464 2.67559 3.30072 2.98816 2.98816C3.30072 2.67559 3.72464 2.5 4.16667 2.5H13.3333" stroke="#6C6C6C" stroke-linecap="round" stroke-linejoin="round"/>
</g>
</g>
</g>
</g>
</g>
</g>
<defs>
<clipPath id="clip0_0_1">
<rect width="430" height="6158" fill="white" transform="translate(-20 -2385)"/>
</clipPath>
</defs>
</svg>
