<svg width="24" height="24" viewBox="0 0 24 24" fill="none" xmlns="http://www.w3.org/2000/svg">
<g id="triangle">
<path id="Vector" d="M20.14 10.29L5.99998 1.82002C5.69756 1.64539 5.35468 1.55299 5.00546 1.55201C4.65624 1.55103 4.31285 1.64151 4.00945 1.81445C3.70606 1.98738 3.45323 2.23675 3.27613 2.53773C3.09902 2.83871 3.00382 3.18082 2.99998 3.53002L2.99998 20.47C3.00382 20.8192 3.09902 21.1613 3.27613 21.4623C3.45323 21.7633 3.70606 22.0127 4.00945 22.1856C4.31285 22.3585 4.65624 22.449 5.00546 22.448C5.35468 22.4471 5.69756 22.3547 5.99998 22.18L20.14 13.71C20.4339 13.5318 20.6769 13.2807 20.8455 12.9812C21.0141 12.6817 21.1027 12.3438 21.1027 12C21.1027 11.6563 21.0141 11.3184 20.8455 11.0188C20.6769 10.7193 20.4339 10.4683 20.14 10.29Z" stroke="white" stroke-width="3" stroke-linecap="round" stroke-linejoin="round"/>
</g>
</svg>
